<?xml version="1.0" standalone="no"?>
<!DOCTYPE svg PUBLIC "-//W3C//DTD SVG 20010904//EN"
 "http://www.w3.org/TR/2001/REC-SVG-20010904/DTD/svg10.dtd">
<svg version="1.0" xmlns="http://www.w3.org/2000/svg"
 width="3116.000000pt" height="3246.000000pt" viewBox="0 0 3116.000000 3246.000000"
 preserveAspectRatio="xMidYMid meet">

<g transform="translate(0.000000,3246.000000) scale(0.100000,-0.100000)"
fill="#000000" stroke="none">
<path d="M13038 28482 l-2526 -3977 -5257 -3 c-4837 -2 -5257 -3 -5251 -18 3
-9 1183 -1868 2621 -4131 1438 -2262 2615 -4118 2615 -4124 0 -5 -1177 -1861
-2615 -4124 -1439 -2263 -2618 -4122 -2621 -4130 -5 -13 601 -15 5249 -15
l5255 0 2528 -3980 c1531 -2409 2535 -3979 2544 -3979 9 0 1015 1574 2544
3979 l2528 3980 5255 0 c4642 0 5254 2 5249 15 -3 8 -1182 1866 -2621 4130
-1438 2263 -2615 4119 -2615 4125 0 5 1177 1861 2615 4123 1438 2263 2618
4122 2621 4131 6 15 -412 16 -5251 18 l-5257 3 -2526 3977 c-1528 2404 -2533
3977 -2542 3977 -9 0 -1012 -1570 -2542 -3977z m4718 -1857 l2169 -3414 4436
-3 4437 -3 -2214 -3483 c-1218 -1916 -2214 -3487 -2214 -3492 0 -5 996 -1577
2214 -3492 l2213 -3483 -4436 -3 -4436 -3 -2169 -3415 c-1193 -1878 -2172
-3414 -2176 -3414 -4 0 -983 1536 -2176 3414 l-2169 3415 -4436 3 -4436 3
2213 3480 c1217 1914 2213 3485 2213 3492 1 7 -995 1579 -2213 3495 l-2213
3483 4436 3 4436 3 2169 3414 c1193 1878 2172 3415 2176 3415 4 0 983 -1537
2176 -3415z"/>
<path d="M14052 24852 l-1523 -2397 1520 -3 1520 -2 750 -910 c413 -501 754
-911 758 -912 14 -3 1382 2096 1375 2108 -37 64 -2868 4513 -2872 4513 -3 0
-690 -1078 -1528 -2397z"/>
<path d="M5104 21693 c4 -9 451 -716 994 -1570 l987 -1553 512 0 c282 0 513
-2 513 -5 0 -3 -115 -186 -255 -406 l-254 -400 336 -530 c185 -291 340 -526
345 -521 4 4 273 426 598 936 l590 929 0 1569 0 1568 -2186 0 c-2049 0 -2186
-1 -2180 -17z"/>
<path d="M13070 21705 c0 -3 370 -674 822 -1492 452 -819 838 -1524 859 -1568
43 -93 84 -222 99 -315 6 -44 10 -1347 10 -4005 l1 -3940 22 25 c12 14 401
521 865 1127 l842 1101 0 2941 0 2941 2099 0 2100 0 58 -48 c258 -216 438
-517 473 -793 6 -55 10 -680 10 -1831 l0 -1748 -865 0 -865 0 0 -1675 0 -1675
3231 0 c2924 0 3231 1 3225 16 -3 8 -783 1238 -1733 2732 -950 1494 -1727
2724 -1727 2732 0 8 777 1237 1727 2731 950 1494 1730 2724 1733 2733 6 15
-292 16 -3723 16 l-3730 0 -593 -907 c-853 -1304 -794 -1216 -839 -1241 -50
-29 -129 -29 -185 -2 -34 16 -199 212 -916 1084 l-875 1065 -1062 0 c-585 1
-1063 -1 -1063 -4z"/>
<path d="M12007 21633 c-320 -499 -1929 -3035 -1933 -3047 -6 -15 76 -16 905
-16 l911 0 0 -2205 0 -2205 -2317 0 -2318 -1 -1072 -1688 c-590 -929 -1076
-1696 -1079 -1705 -6 -15 366 -16 4472 -14 l4479 3 3 1703 2 1702 -350 0 -350
0 0 2595 0 2595 -647 1175 c-357 646 -651 1174 -656 1175 -4 0 -27 -30 -50
-67z"/>
<path d="M17390 14486 l0 -3124 -521 -688 c-286 -379 -533 -702 -547 -718 -44
-48 -141 -105 -226 -134 l-81 -27 -1673 -3 c-921 -1 -1672 -6 -1670 -10 8 -20
2904 -4572 2908 -4572 3 0 728 1139 1613 2530 l1607 2530 0 3670 0 3670 -705
0 -705 0 0 -3124z"/>
<path d="M10066 17230 c-530 -84 -898 -557 -836 -1075 81 -677 800 -1071 1403
-769 263 132 447 363 519 651 33 132 30 331 -6 468 -90 343 -362 614 -701 700
-113 29 -282 40 -379 25z"/>
<path d="M1835 31156 l-70 -66 70 7 c39 3 71 7 73 8 2 2 2 28 0 59 l-3 57 -70
-65z"/>
</g>
</svg>
